<svg width="90" height="50" viewBox="0 0 90 50" fill="none" xmlns="http://www.w3.org/2000/svg">
<g clip-path="url(#clip0_164_415)">
<path d="M21.1046 32.787V15.5247H28.9189V18.1247H24.9474V22.4083H27.9743V25.0509H24.9474V30.2083H28.9619V32.787H21.1046ZM30.5132 32.787V20.4689H33.9481V21.4492C34.4061 21.0088 34.8784 20.6962 35.365 20.5115C35.8659 20.3269 36.374 20.2345 36.8892 20.2345C37.3902 20.2345 37.8195 20.3624 38.1773 20.6181C38.5494 20.8597 38.8285 21.222 39.0145 21.705C39.5011 21.1651 40.0092 20.7886 40.5388 20.5755C41.0826 20.3482 41.6264 20.2345 42.1703 20.2345C42.6569 20.2345 43.0791 20.3552 43.4369 20.5968C43.7947 20.8241 44.0738 21.1651 44.2742 21.6197C44.4746 22.0601 44.5747 22.5929 44.5747 23.2181V32.787H41.1399V23.5804C41.1399 23.2394 41.0754 22.9979 40.9466 22.8558C40.8321 22.6995 40.6533 22.6214 40.4099 22.6214C40.2669 22.6214 40.0879 22.664 39.8732 22.7492C39.6586 22.8203 39.4511 22.9269 39.2507 23.0689C39.2507 23.0974 39.2507 23.1257 39.2507 23.1542C39.2507 23.1683 39.2507 23.1897 39.2507 23.2181V32.787H35.8588V23.5804C35.8588 23.2394 35.7943 22.9979 35.6655 22.8558C35.5367 22.6995 35.3507 22.6214 35.1074 22.6214C34.9499 22.6214 34.7639 22.664 34.5492 22.7492C34.3488 22.8203 34.1485 22.9269 33.9481 23.0689V32.787H30.5132ZM46.6985 32.787V20.4689H50.1978V32.787H46.6985ZM46.6771 18.3804V15.9722H50.1978V18.3804H46.6771ZM56.2012 32.9148C55.271 32.9148 54.5482 32.7798 54.033 32.5099C53.5321 32.24 53.1886 31.8492 53.0025 31.3378C52.8165 30.8121 52.7234 30.1798 52.7234 29.4411V22.7492H51.5212V20.4689H52.7234V16.7181H56.2656V20.4689H58.026V22.7492H56.2656V29.1001C56.2656 29.4552 56.3659 29.711 56.5662 29.8673C56.7809 30.0236 57.0457 30.1017 57.3605 30.1017C57.5466 30.1017 57.7184 30.0946 57.8757 30.0804C58.0332 30.052 58.1763 30.0306 58.3051 30.0165V32.7443C58.1191 32.7728 57.8257 32.8083 57.4249 32.8509C57.0242 32.8935 56.6163 32.9148 56.2012 32.9148ZM64.0051 33.0001C63.1035 33.0001 62.3306 32.8438 61.6866 32.5312C61.0426 32.2044 60.5488 31.7356 60.2053 31.1247C59.8618 30.4995 59.6901 29.7536 59.6901 28.887V24.3689C59.6901 23.488 59.8618 22.7421 60.2053 22.1312C60.5488 21.5203 61.0426 21.0585 61.6866 20.746C62.345 20.4192 63.1179 20.2558 64.0051 20.2558C64.9212 20.2558 65.6796 20.4121 66.2807 20.7247C66.8962 21.0372 67.3541 21.499 67.6547 22.1099C67.9696 22.7208 68.127 23.4738 68.127 24.3689V26.8411H63.1464V29.2066C63.1464 29.5192 63.1823 29.7749 63.2538 29.9738C63.3253 30.1728 63.4255 30.3148 63.5543 30.4001C63.6831 30.4853 63.8334 30.5279 64.0051 30.5279C64.1769 30.5279 64.3272 30.4924 64.456 30.4214C64.5991 30.3361 64.7065 30.2083 64.778 30.0378C64.8639 29.8673 64.9068 29.6329 64.9068 29.3345V28.0345H68.127V29.2279C68.127 30.4782 67.762 31.423 67.0321 32.0624C66.3022 32.6875 65.2932 33.0001 64.0051 33.0001ZM63.1464 25.2214H64.9068V23.9853C64.9068 23.6585 64.8639 23.4028 64.778 23.2181C64.7065 23.0334 64.5991 22.9056 64.456 22.8345C64.3272 22.7634 64.1698 22.7279 63.9837 22.7279C63.8119 22.7279 63.6617 22.7706 63.5328 22.8558C63.4184 22.9411 63.3253 23.0902 63.2538 23.3033C63.1823 23.5023 63.1464 23.7935 63.1464 24.1771V25.2214ZM74.0677 33.0001C73.1661 33.0001 72.3932 32.8367 71.7492 32.5099C71.1195 32.1831 70.6329 31.7142 70.2894 31.1033C69.9459 30.4924 69.7741 29.7536 69.7741 28.887V24.3689C69.7741 23.488 69.9459 22.7421 70.2894 22.1312C70.6329 21.5203 71.1195 21.0585 71.7492 20.746C72.3932 20.4192 73.1661 20.2558 74.0677 20.2558C74.9551 20.2558 75.7065 20.3908 76.3218 20.6607C76.9516 20.9306 77.4311 21.3427 77.7602 21.8968C78.0894 22.4367 78.254 23.1257 78.254 23.964V25.264H74.8835V23.8574C74.8835 23.5306 74.8477 23.282 74.7762 23.1115C74.7189 22.9269 74.6259 22.799 74.4971 22.7279C74.3826 22.6569 74.2395 22.6214 74.0677 22.6214C73.896 22.6214 73.7529 22.6711 73.6384 22.7706C73.5239 22.8558 73.438 23.005 73.3807 23.2181C73.3235 23.417 73.2949 23.7011 73.2949 24.0706V29.1853C73.2949 29.7394 73.3593 30.1159 73.4881 30.3148C73.6313 30.5138 73.8316 30.6132 74.0892 30.6132C74.2753 30.6132 74.4256 30.5777 74.54 30.5066C74.6545 30.4214 74.7404 30.2935 74.7976 30.123C74.8549 29.9383 74.8835 29.6968 74.8835 29.3984V27.7574H78.254V29.2492C78.254 30.0733 78.0822 30.7695 77.7387 31.3378C77.4096 31.8919 76.9301 32.311 76.3004 32.5951C75.685 32.8651 74.9408 33.0001 74.0677 33.0001ZM80.0953 32.787V15.5247H83.5729V21.5558C84.0311 21.1011 84.5109 20.7744 85.0112 20.5755C85.5124 20.3624 86.0491 20.2558 86.6213 20.2558C87.1225 20.2558 87.5378 20.3837 87.8664 20.6394C88.2099 20.881 88.4676 21.222 88.6393 21.6624C88.811 22.0886 88.8969 22.5788 88.8969 23.1329V32.787H85.4191V23.623C85.4191 23.3247 85.3696 23.0974 85.2688 22.9411C85.1689 22.7847 84.9832 22.7066 84.7107 22.7066C84.5678 22.7066 84.3961 22.7492 84.1954 22.8345C83.9956 22.9056 83.7876 23.0121 83.5729 23.1542V32.787H80.0953Z" fill="#EAEEF2"/>
<path d="M24.7183 13.5241C26.2909 13.5255 27.8456 13.866 29.2808 14.5233C30.716 15.1806 31.9997 16.14 33.0481 17.3387L36.3302 14.3124C34.2294 11.923 31.4731 10.2366 28.4211 9.47356C25.3691 8.71045 22.163 8.90602 19.2212 10.0347C16.2796 11.1634 13.7387 13.1727 11.9304 15.8006C10.122 18.4286 9.13019 21.5528 9.08419 24.766C9.0382 27.9791 9.94027 31.1319 11.6726 33.8127C13.405 36.4937 15.8872 38.5783 18.7954 39.7945C21.7035 41.0108 24.9026 41.3022 27.9752 40.6308C31.0477 39.9594 33.8511 38.3563 36.0195 36.0308L32.8118 32.9154C31.5341 34.2821 29.9451 35.3036 28.1871 35.8887C26.4291 36.4738 24.5566 36.6042 22.7373 36.2682C20.9178 35.9323 19.2083 35.1406 17.7612 33.9637C16.3141 32.7868 15.1746 31.2616 14.4448 29.5243C13.7149 27.7869 13.4172 25.8917 13.5785 24.008C13.7398 22.1243 14.3549 20.3108 15.3688 18.7297C16.3829 17.1485 17.7641 15.849 19.3891 14.9472C21.0141 14.0454 22.8323 13.5696 24.6811 13.5622L24.7183 13.5241Z" fill="#EAEEF2"/>
<path d="M10.7339 11.0528L7.63597 8.19678C5.21585 10.3996 3.29548 13.018 1.98501 15.9017C0.674629 18.7852 0 21.8773 0 25.0001C0 28.1228 0.674629 31.2149 1.98501 34.0984C3.29548 36.9821 5.21585 39.6005 7.63597 41.8033L10.7339 38.9473C8.71621 37.1236 7.11423 34.9517 6.02082 32.5575C4.92749 30.1634 4.3645 27.5946 4.3645 25.0001C4.3645 22.4055 4.92749 19.8367 6.02082 17.4426C7.11423 15.0484 8.71621 12.8765 10.7339 11.0528Z" fill="#EAEEF2"/>
<path d="M38.8073 5.30763C34.9766 1.85264 30.3477 -0.0070292 25.5963 1.99663e-05V4.65238C29.5168 4.64796 33.337 6.17632 36.5042 9.01639L38.8073 5.30763Z" fill="#EAEEF2"/>
<path d="M25.5963 45.4103V49.9999C30.2879 50.0058 34.879 48.4782 38.8073 45.6042L36.4997 41.8032C33.2536 44.1631 29.4658 45.4162 25.5963 45.4103Z" fill="#EAEEF2"/>
<path d="M25.5964 40.7994C22.164 40.7971 18.8151 39.7915 16.0033 37.9185C13.1913 36.0457 11.052 33.3958 9.87493 30.3279L5.77985 32.1375C7.32197 35.9474 10.0408 39.2235 13.5782 41.5342C17.1156 43.8448 21.3056 45.0817 25.5964 45.082V40.7994Z" fill="#EAEEF2"/>
<path d="M9.98474 23.7704C10.2404 19.8035 11.996 16.0823 14.8952 13.3619C17.7944 10.6416 21.6203 9.12567 25.5964 9.12182V4.91797C20.5045 4.91782 15.6075 6.87485 11.9188 10.384C8.23016 13.8933 6.03213 18.6861 5.77985 23.7704H9.98474Z" fill="#EAEEF2"/>
</g>
<defs>
<clipPath id="clip0_164_415">
<rect width="90" height="50" fill="white"/>
</clipPath>
</defs>
</svg>
