<svg width="18" height="20" viewBox="0 0 18 20" fill="none" xmlns="http://www.w3.org/2000/svg">
<path d="M15.6757 18.5714H10.8299C11.6439 17.909 12.4116 17.2008 13.1284 16.4509C15.8177 13.6321 17.2432 10.6607 17.2432 7.85714C17.2432 5.7733 16.3349 3.7748 14.718 2.3013C13.1012 0.827804 10.9082 0 8.62162 0C6.33503 0 4.14208 0.827804 2.52521 2.3013C0.908347 3.7748 0 5.7733 0 7.85714C0 10.6607 1.42159 13.6321 4.11486 16.4509C4.83164 17.2008 5.5993 17.909 6.41331 18.5714H1.56757C1.3597 18.5714 1.16034 18.6467 1.01335 18.7806C0.866361 18.9146 0.783784 19.0963 0.783784 19.2857C0.783784 19.4752 0.866361 19.6568 1.01335 19.7908C1.16034 19.9247 1.3597 20 1.56757 20H15.6757C15.8835 20 16.0829 19.9247 16.2299 19.7908C16.3769 19.6568 16.4595 19.4752 16.4595 19.2857C16.4595 19.0963 16.3769 18.9146 16.2299 18.7806C16.0829 18.6467 15.8835 18.5714 15.6757 18.5714ZM1.56757 7.85714C1.56757 6.15218 2.31076 4.51705 3.63365 3.31146C4.95654 2.10587 6.75077 1.42857 8.62162 1.42857C10.4925 1.42857 12.2867 2.10587 13.6096 3.31146C14.9325 4.51705 15.6757 6.15218 15.6757 7.85714C15.6757 12.967 10.2411 17.2321 8.62162 18.3929C7.00213 17.2321 1.56757 12.967 1.56757 7.85714ZM12.5405 7.85714C12.5405 7.15078 12.3107 6.46028 11.8801 5.87296C11.4495 5.28565 10.8374 4.82789 10.1213 4.55757C9.40524 4.28726 8.61727 4.21653 7.85708 4.35434C7.09688 4.49214 6.3986 4.83229 5.85053 5.33176C5.30246 5.83123 4.92922 6.4676 4.778 7.16039C4.62679 7.85318 4.7044 8.57128 5.00101 9.22387C5.29763 9.87646 5.79992 10.4342 6.44439 10.8267C7.08885 11.2191 7.84653 11.4286 8.62162 11.4286C9.66098 11.4286 10.6578 11.0523 11.3927 10.3825C12.1277 9.71275 12.5405 8.80434 12.5405 7.85714ZM6.27027 7.85714C6.27027 7.43333 6.40817 7.01903 6.66654 6.66664C6.92491 6.31424 7.29214 6.03959 7.7218 5.8774C8.15145 5.71521 8.62423 5.67278 9.08035 5.75546C9.53647 5.83814 9.95544 6.04223 10.2843 6.34191C10.6131 6.6416 10.8371 7.02342 10.9278 7.43909C11.0185 7.85477 10.972 8.28562 10.794 8.67718C10.616 9.06873 10.3146 9.4034 9.92796 9.63886C9.54128 9.87432 9.08667 10 8.62162 10C7.998 10 7.39993 9.77424 6.95896 9.37237C6.518 8.97051 6.27027 8.42546 6.27027 7.85714Z" fill="#EAEEF2"/>
</svg>
