<svg width="38" height="38" viewBox="0 0 38 38" fill="none" xmlns="http://www.w3.org/2000/svg">
<path d="M26.125 20.5834C24.225 20.5834 21.2641 21.1217 19 22.1667C16.7358 21.1059 13.775 20.5834 11.875 20.5834C8.43915 20.5834 1.58331 22.2934 1.58331 25.7292V30.0834H36.4166V25.7292C36.4166 22.2934 29.5608 20.5834 26.125 20.5834ZM19.7916 27.7084H3.95831V25.7292C3.95831 24.8742 8.01165 22.9584 11.875 22.9584C15.7383 22.9584 19.7916 24.8742 19.7916 25.7292V27.7084ZM34.0416 27.7084H22.1666V25.7292C22.1666 25.0009 21.85 24.3676 21.3433 23.7976C22.7366 23.3226 24.4466 22.9584 26.125 22.9584C29.9883 22.9584 34.0416 24.8742 34.0416 25.7292V27.7084ZM11.875 19.0001C14.9308 19.0001 17.4166 16.5142 17.4166 13.4584C17.4166 10.4026 14.9308 7.91675 11.875 7.91675C8.81915 7.91675 6.33331 10.4026 6.33331 13.4584C6.33331 16.5142 8.81915 19.0001 11.875 19.0001ZM11.875 10.2917C13.6166 10.2917 15.0416 11.7167 15.0416 13.4584C15.0416 15.2001 13.6166 16.6251 11.875 16.6251C10.1333 16.6251 8.70831 15.2001 8.70831 13.4584C8.70831 11.7167 10.1333 10.2917 11.875 10.2917ZM26.125 19.0001C29.1808 19.0001 31.6666 16.5142 31.6666 13.4584C31.6666 10.4026 29.1808 7.91675 26.125 7.91675C23.0691 7.91675 20.5833 10.4026 20.5833 13.4584C20.5833 16.5142 23.0691 19.0001 26.125 19.0001ZM26.125 10.2917C27.8666 10.2917 29.2916 11.7167 29.2916 13.4584C29.2916 15.2001 27.8666 16.6251 26.125 16.6251C24.3833 16.6251 22.9583 15.2001 22.9583 13.4584C22.9583 11.7167 24.3833 10.2917 26.125 10.2917Z" fill="black"/>
</svg>
