<svg width="38" height="38" viewBox="0 0 38 38" fill="none" xmlns="http://www.w3.org/2000/svg">
<path d="M35.3294 7.7794C35.1634 7.6962 34.9785 7.65824 34.7931 7.66936C34.6078 7.68048 34.4287 7.74028 34.2739 7.84274L24.2778 14.535V8.71885C24.2781 8.5181 24.2212 8.32142 24.1136 8.15188C24.0061 7.98234 23.8525 7.84697 23.6708 7.76165C23.4891 7.67633 23.2868 7.6446 23.0877 7.67018C22.8886 7.69576 22.7009 7.77759 22.5466 7.90607L14.2289 14.7777H10.5555V4.87662C10.5615 4.63262 10.4827 4.39409 10.3326 4.20163C10.1825 4.00918 9.97031 3.87469 9.7322 3.82107L5.50997 2.87107C5.35419 2.83611 5.19251 2.83695 5.0371 2.87352C4.88169 2.91009 4.7366 2.98143 4.61275 3.08218C4.48603 3.18484 4.38481 3.31546 4.31705 3.46381C4.24929 3.61215 4.21682 3.77418 4.2222 3.93718V14.7777H3.16664C2.88669 14.7777 2.6182 14.8889 2.42025 15.0869C2.22229 15.2849 2.11108 15.5533 2.11108 15.8333V32.7222C2.11108 33.0021 2.22229 33.2706 2.42025 33.4686C2.6182 33.6665 2.88669 33.7777 3.16664 33.7777H34.8333C35.1133 33.7777 35.3817 33.6665 35.5797 33.4686C35.7777 33.2706 35.8889 33.0021 35.8889 32.7222V8.71885C35.8903 8.5261 35.8389 8.33665 35.7403 8.17104C35.6416 8.00543 35.4996 7.86999 35.3294 7.7794ZM6.33331 5.27774L8.44442 5.74218V14.7777H6.33331V5.27774ZM33.7778 31.6666H4.2222V16.8888H14.5983C14.8449 16.8893 15.084 16.8034 15.2739 16.6461L22.1666 10.9461V16.5194C22.1664 16.7112 22.2183 16.8994 22.3169 17.0638C22.4155 17.2283 22.5571 17.3628 22.7264 17.4529C22.8957 17.5429 23.0863 17.5852 23.2778 17.5751C23.4693 17.565 23.6544 17.5029 23.8133 17.3955L33.7778 10.7033V31.6666Z" fill="black"/>
<path d="M6.33331 18.9895H14.7778V21.1006H6.33331V18.9895ZM6.33331 23.2117H14.7778V25.3228H6.33331V23.2117ZM6.33331 27.4339H14.7778V29.5451H6.33331V27.4339ZM20.0555 20.0451H22.1666V23.2117H20.0555V20.0451ZM20.0555 26.3784H22.1666V29.5451H20.0555V26.3784ZM24.2778 20.0451H26.3889V23.2117H24.2778V20.0451ZM24.2778 26.3784H26.3889V29.5451H24.2778V26.3784ZM28.5 20.0451H30.6111V23.2117H28.5V20.0451ZM28.5 26.3784H30.6111V29.5451H28.5V26.3784Z" fill="black"/>
</svg>
