<svg width="30" height="30" viewBox="0 0 30 30" fill="none" xmlns="http://www.w3.org/2000/svg">
<path d="M15 27C18.1826 27 21.2348 25.7357 23.4853 23.4853C25.7357 21.2348 27 18.1826 27 15C27 11.8174 25.7357 8.76515 23.4853 6.51472C21.2348 4.26428 18.1826 3 15 3C11.8174 3 8.76515 4.26428 6.51472 6.51472C4.26428 8.76515 3 11.8174 3 15C3 18.1826 4.26428 21.2348 6.51472 23.4853C8.76515 25.7357 11.8174 27 15 27ZM15 30C6.7155 30 0 23.2845 0 15C0 6.7155 6.7155 0 15 0C23.2845 0 30 6.7155 30 15C30 23.2845 23.2845 30 15 30Z" fill="#EAEEF2"/>
<path d="M20.4661 14.1059C20.4841 11.8679 18.6376 9.81595 16.3501 9.53245L16.2001 9.50995C16.0854 9.48717 15.969 9.47412 15.8521 9.47095C15.3826 9.47095 15.2581 9.80995 15.2251 10.0124C15.2064 10.0965 15.2047 10.1835 15.2202 10.2683C15.2356 10.3531 15.2679 10.4339 15.3151 10.5059C15.4711 10.7234 15.7441 10.7609 15.9631 10.7939C16.0276 10.8029 16.0891 10.8104 16.1386 10.8239C18.1951 11.2964 18.8881 12.0419 19.2256 14.1464C19.2346 14.1989 19.2376 14.2619 19.2406 14.3294C19.2556 14.5799 19.2871 15.1034 19.8331 15.1034C19.8781 15.1034 19.9261 15.1004 19.9771 15.0914C20.4856 15.0119 20.4691 14.5334 20.4616 14.3039C20.4578 14.2485 20.4578 14.1929 20.4616 14.1374C20.4633 14.1275 20.4643 14.1175 20.4646 14.1074L20.4661 14.1059Z" fill="#EAEEF2"/>
<path d="M15.7201 8.71034C15.7801 8.71484 15.8401 8.71934 15.8866 8.72684C19.2616 9.26384 20.8156 10.9138 21.2461 14.4268C21.2536 14.4868 21.2536 14.5588 21.2551 14.6368C21.2596 14.9113 21.2686 15.4813 21.8626 15.4933H21.8806C21.9621 15.4977 22.0437 15.4845 22.1197 15.4548C22.1958 15.425 22.2646 15.3794 22.3216 15.3208C22.5061 15.1213 22.4941 14.8258 22.4836 14.5858C22.4806 14.5288 22.4776 14.4733 22.4791 14.4253C22.5211 10.8328 19.5091 7.57484 16.0321 7.45484L15.9901 7.45634C15.9767 7.45831 15.9631 7.45931 15.9496 7.45934C15.9151 7.45934 15.8716 7.45634 15.8266 7.45334C15.7667 7.44787 15.7067 7.44486 15.6466 7.44434C15.0931 7.44434 14.9881 7.84934 14.9746 8.09234C14.9446 8.65184 15.4681 8.69234 15.7201 8.71034ZM21.0826 18.9658C21.0103 18.9093 20.9388 18.8517 20.8681 18.7933C20.4991 18.4873 20.1061 18.2053 19.7281 17.9323C19.649 17.8755 19.57 17.8185 19.4911 17.7613C19.0051 17.4103 18.5686 17.2378 18.1561 17.2378C17.6011 17.2378 17.1166 17.5558 16.7161 18.1813C16.5391 18.4573 16.3231 18.5923 16.0591 18.5923C15.8748 18.5858 15.6941 18.5392 15.5296 18.4558C13.9621 17.7208 12.8416 16.5958 12.2011 15.1108C11.8921 14.3908 11.9911 13.9228 12.5371 13.5403C12.8461 13.3243 13.4221 12.9208 13.3816 12.1483C13.3366 11.2708 11.4601 8.63084 10.6696 8.33084C10.3324 8.20357 9.96051 8.20251 9.62257 8.32784C8.71507 8.64284 8.06257 9.19784 7.73707 9.92834C7.42207 10.6363 7.43707 11.4658 7.77907 12.3298C8.76457 14.8288 10.1491 17.0068 11.8981 18.8038C13.6081 20.5633 15.7111 22.0033 18.1471 23.0863C18.3661 23.1838 18.5971 23.2363 18.7651 23.2753L18.9076 23.3113C18.9271 23.3169 18.9473 23.32 18.9676 23.3203H18.9871C20.1331 23.3203 21.5086 22.2403 21.9316 21.0073C22.3021 19.9273 21.6256 19.3948 21.0826 18.9673V18.9658ZM16.2271 11.5648C16.0321 11.5693 15.6226 11.5798 15.4786 12.0088C15.4126 12.2098 15.4201 12.3838 15.5026 12.5263C15.6241 12.7363 15.8581 12.8008 16.0696 12.8353C16.8376 12.9628 17.2336 13.4023 17.3116 14.2153C17.3491 14.5963 17.5966 14.8603 17.9146 14.8603C17.9386 14.8608 17.9627 14.8598 17.9866 14.8573C18.3691 14.8093 18.5536 14.5198 18.5371 13.9948C18.5431 13.4458 18.2656 12.8248 17.7931 12.3298C17.3191 11.8318 16.7476 11.5513 16.2271 11.5648Z" fill="#EAEEF2"/>
</svg>
