<svg width="38" height="38" viewBox="0 0 38 38" fill="none" xmlns="http://www.w3.org/2000/svg">
<path d="M36.9147 3.20972H30.4464C30.3169 3.20972 30.1926 3.26159 30.101 3.35391C30.0094 3.44624 29.958 3.57145 29.958 3.70202C29.958 3.78591 29.9843 3.86097 30.0204 3.92941V7.68018C30.0205 7.81764 29.9938 7.95378 29.9417 8.0808C29.8895 8.20782 29.8131 8.32324 29.7166 8.42044C29.6202 8.51763 29.5057 8.59471 29.3796 8.64724C29.2536 8.69978 29.1185 8.72675 28.9822 8.7266H26.9692C26.8426 8.7266 26.7173 8.70148 26.6004 8.65266C26.4834 8.60385 26.3772 8.5323 26.2877 8.4421C26.1982 8.3519 26.1272 8.24482 26.0788 8.12696C26.0303 8.00911 26.0054 7.8828 26.0054 7.75524V3.99012C26.07 3.90798 26.1062 3.8068 26.1084 3.70202C26.1085 3.63733 26.096 3.57325 26.0715 3.51345C26.047 3.45366 26.011 3.39933 25.9656 3.35359C25.9202 3.30784 25.8663 3.27159 25.807 3.2469C25.7477 3.22221 25.6841 3.20957 25.6199 3.20972H12.5816C12.4521 3.20972 12.3278 3.26159 12.2362 3.35391C12.1446 3.44624 12.0931 3.57145 12.0931 3.70202C12.0931 3.77818 12.114 3.84773 12.1446 3.91285V7.70667C12.1446 7.84076 12.1184 7.97353 12.0675 8.09741C12.0166 8.22128 11.942 8.33384 11.8479 8.42865C11.7538 8.52346 11.6422 8.59867 11.5192 8.64998C11.3963 8.7013 11.2646 8.72771 11.1316 8.72771H9.34421C9.07291 8.72771 8.81273 8.61909 8.6209 8.42574C8.42907 8.2324 8.3213 7.97017 8.3213 7.69674V3.94045C8.36479 3.86851 8.38859 3.78624 8.39029 3.70202C8.39044 3.63733 8.3779 3.57325 8.35341 3.51345C8.32891 3.45366 8.29294 3.39933 8.24755 3.35359C8.20216 3.30784 8.14826 3.27159 8.08893 3.2469C8.0296 3.22221 7.96602 3.20957 7.90184 3.20972H1.08643C0.798572 3.21001 0.522567 3.32532 0.318916 3.53036C0.115264 3.73541 0.000579637 4.01347 0 4.3036V36.9038C0 37.5087 0.487362 37.9999 1.08643 37.9999H36.9147C37.2027 37.9993 37.4788 37.8835 37.6822 37.678C37.8857 37.4725 38 37.1941 38 36.9038V4.3036C37.9994 4.01367 37.8849 3.73577 37.6815 3.53075C37.4781 3.32574 37.2023 3.2103 36.9147 3.20972ZM36.9147 37.0153H1.08643C1.07196 37.0153 1.05763 37.0124 1.04427 37.0067C1.03091 37.0011 1.01879 36.9929 1.0086 36.9825C0.998418 36.9722 0.990374 36.9599 0.984935 36.9463C0.979495 36.9328 0.97677 36.9184 0.976914 36.9038V12.3184H37.0231V36.9027C37.0234 36.9173 37.0208 36.9318 37.0155 36.9453C37.0102 36.9589 37.0023 36.9713 36.9922 36.9818C36.9821 36.9922 36.9701 37.0006 36.9567 37.0063C36.9434 37.0121 36.9291 37.0151 36.9147 37.0153Z" fill="#13293D"/>
<path d="M10.365 7.60531C10.6344 7.60531 10.8534 7.38454 10.8534 7.11301V0.492303C10.8534 0.427653 10.8408 0.363636 10.8163 0.303907C10.7917 0.244178 10.7557 0.189907 10.7104 0.144192C10.665 0.0984778 10.6112 0.062215 10.5519 0.0374745C10.4926 0.0127339 10.4291 0 10.365 0C10.3008 0 10.2373 0.0127339 10.1781 0.0374745C10.1188 0.062215 10.0649 0.0984778 10.0196 0.144192C9.97423 0.189907 9.93825 0.244178 9.91371 0.303907C9.88916 0.363636 9.87653 0.427653 9.87653 0.492303V7.11411C9.87653 7.38565 10.0956 7.60531 10.365 7.60531ZM28.0568 7.60531C28.3262 7.60531 28.5452 7.38454 28.5452 7.11301V0.492303C28.5452 0.427653 28.5326 0.363636 28.508 0.303907C28.4835 0.244178 28.4475 0.189907 28.4022 0.144192C28.3568 0.0984778 28.303 0.062215 28.2437 0.0374745C28.1844 0.0127339 28.1209 0 28.0568 0C27.9926 0 27.9291 0.0127339 27.8698 0.0374745C27.8106 0.062215 27.7567 0.0984778 27.7114 0.144192C27.666 0.189907 27.63 0.244178 27.6055 0.303907C27.5809 0.363636 27.5683 0.427653 27.5683 0.492303V7.11411C27.5683 7.38565 27.7863 7.60531 28.0568 7.60531Z" fill="#13293D"/>
<path d="M7.84043 19.766C9.32717 19.766 10.5324 18.5512 10.5324 17.0528C10.5324 15.5543 9.32717 14.3396 7.84043 14.3396C6.35368 14.3396 5.14844 15.5543 5.14844 17.0528C5.14844 18.5512 6.35368 19.766 7.84043 19.766Z" fill="#13293D"/>
<path d="M15.5769 19.766C17.0636 19.766 18.2689 18.5512 18.2689 17.0528C18.2689 15.5543 17.0636 14.3396 15.5769 14.3396C14.0901 14.3396 12.8849 15.5543 12.8849 17.0528C12.8849 18.5512 14.0901 19.766 15.5769 19.766Z" fill="#13293D"/>
<path d="M23.3122 19.766C24.799 19.766 26.0042 18.5512 26.0042 17.0528C26.0042 15.5543 24.799 14.3396 23.3122 14.3396C21.8255 14.3396 20.6202 15.5543 20.6202 17.0528C20.6202 18.5512 21.8255 19.766 23.3122 19.766Z" fill="#13293D"/>
<path d="M7.84043 27.3216C9.32717 27.3216 10.5324 26.1069 10.5324 24.6084C10.5324 23.11 9.32717 21.8953 7.84043 21.8953C6.35368 21.8953 5.14844 23.11 5.14844 24.6084C5.14844 26.1069 6.35368 27.3216 7.84043 27.3216Z" fill="#13293D"/>
<path d="M15.5769 27.3216C17.0636 27.3216 18.2689 26.1069 18.2689 24.6084C18.2689 23.11 17.0636 21.8953 15.5769 21.8953C14.0901 21.8953 12.8849 23.11 12.8849 24.6084C12.8849 26.1069 14.0901 27.3216 15.5769 27.3216Z" fill="#13293D"/>
<path d="M23.3122 27.3216C24.799 27.3216 26.0042 26.1069 26.0042 24.6084C26.0042 23.11 24.799 21.8953 23.3122 21.8953C21.8255 21.8953 20.6202 23.11 20.6202 24.6084C20.6202 26.1069 21.8255 27.3216 23.3122 27.3216Z" fill="#13293D"/>
<path d="M7.84043 34.8773C9.32717 34.8773 10.5324 33.6626 10.5324 32.1641C10.5324 30.6657 9.32717 29.4509 7.84043 29.4509C6.35368 29.4509 5.14844 30.6657 5.14844 32.1641C5.14844 33.6626 6.35368 34.8773 7.84043 34.8773Z" fill="#13293D"/>
<path d="M15.5769 34.8773C17.0636 34.8773 18.2689 33.6626 18.2689 32.1641C18.2689 30.6657 17.0636 29.4509 15.5769 29.4509C14.0901 29.4509 12.8849 30.6657 12.8849 32.1641C12.8849 33.6626 14.0901 34.8773 15.5769 34.8773Z" fill="#13293D"/>
<path d="M23.3122 34.8773C24.799 34.8773 26.0042 33.6626 26.0042 32.1641C26.0042 30.6657 24.799 29.4509 23.3122 29.4509C21.8255 29.4509 20.6202 30.6657 20.6202 32.1641C20.6202 33.6626 21.8255 34.8773 23.3122 34.8773Z" fill="#13293D"/>
<path d="M30.867 19.766C32.3538 19.766 33.559 18.5512 33.559 17.0528C33.559 15.5543 32.3538 14.3396 30.867 14.3396C29.3803 14.3396 28.175 15.5543 28.175 17.0528C28.175 18.5512 29.3803 19.766 30.867 19.766Z" fill="#13293D"/>
<path d="M30.867 27.3216C32.3538 27.3216 33.559 26.1069 33.559 24.6084C33.559 23.11 32.3538 21.8953 30.867 21.8953C29.3803 21.8953 28.175 23.11 28.175 24.6084C28.175 26.1069 29.3803 27.3216 30.867 27.3216Z" fill="#13293D"/>
<path d="M30.867 34.8773C32.3538 34.8773 33.559 33.6626 33.559 32.1641C33.559 30.6657 32.3538 29.4509 30.867 29.4509C29.3803 29.4509 28.175 30.6657 28.175 32.1641C28.175 33.6626 29.3803 34.8773 30.867 34.8773Z" fill="#13293D"/>
</svg>
